<svg width="84" height="58" viewBox="0 0 84 58" fill="none" xmlns="http://www.w3.org/2000/svg">
<path fill-rule="evenodd" clip-rule="evenodd" d="M38.2907 29.3714L38.6564 27.0392L37.8418 27.0201H33.9517L36.6552 9.8093C36.6636 9.75719 36.6908 9.70881 36.7306 9.67439C36.7705 9.63997 36.8215 9.62109 36.8747 9.62109H43.4339C45.6116 9.62109 47.1143 10.076 47.8988 10.974C48.2667 11.3952 48.5009 11.8355 48.6143 12.3199C48.7332 12.8283 48.7352 13.4356 48.6192 14.1765L48.6108 14.2303V14.7051L48.9787 14.9144C49.2883 15.0794 49.5345 15.2682 49.7234 15.4843C50.0379 15.8446 50.2414 16.3024 50.3274 16.845C50.4164 17.4032 50.387 18.0675 50.2414 18.8195C50.0736 19.6845 49.8023 20.4379 49.4358 21.0543C49.0989 21.6222 48.6696 22.0934 48.1597 22.4584C47.673 22.8054 47.0948 23.0687 46.4409 23.2372C45.8073 23.4028 45.0849 23.4864 44.2926 23.4864H43.7822C43.4173 23.4864 43.0627 23.6184 42.7844 23.855C42.5053 24.0965 42.3208 24.4265 42.2642 24.7874L42.2256 24.9974L41.5794 29.1083L41.5502 29.2591C41.5424 29.3069 41.529 29.3307 41.5095 29.3469C41.492 29.3616 41.467 29.3714 41.4425 29.3714H38.2907Z" fill="#28356A"/>
<path fill-rule="evenodd" clip-rule="evenodd" d="M49.3267 14.2852C49.3073 14.4108 49.2848 14.5392 49.2597 14.6712C48.3948 19.1304 45.4353 20.6709 41.6558 20.6709H39.7313C39.2691 20.6709 38.8795 21.0078 38.8076 21.4656L37.5433 29.5181C37.4964 29.8188 37.7272 30.0896 38.0292 30.0896H41.4425C41.8466 30.0896 42.1899 29.7948 42.2536 29.3946L42.2871 29.2205L42.9297 25.1258L42.9711 24.9012C43.0339 24.4996 43.3781 24.2046 43.7822 24.2046H44.2926C47.5995 24.2046 50.1884 22.8566 50.945 18.9556C51.261 17.326 51.0974 15.9653 50.261 15.0083C50.008 14.7198 49.694 14.4802 49.3267 14.2852Z" fill="#298FC2"/>
<path fill-rule="evenodd" clip-rule="evenodd" d="M48.422 13.923C48.2898 13.8843 48.1534 13.8493 48.0136 13.8176C47.873 13.7868 47.729 13.7594 47.5807 13.7354C47.0619 13.6513 46.4932 13.6113 45.8843 13.6113H40.7432C40.6165 13.6113 40.4962 13.64 40.3887 13.692C40.1515 13.8064 39.9754 14.0318 39.9327 14.3077L38.8389 21.263L38.8076 21.4658C38.8795 21.0079 39.2691 20.671 39.7313 20.671H41.6558C45.4353 20.671 48.3948 19.1298 49.2597 14.6714C49.2856 14.5394 49.3073 14.411 49.3267 14.2853C49.1079 14.1687 48.8709 14.069 48.6157 13.984C48.5526 13.963 48.4876 13.9427 48.422 13.923Z" fill="#22284F"/>
<path fill-rule="evenodd" clip-rule="evenodd" d="M39.9327 14.3074C39.9754 14.0315 40.1515 13.8061 40.3887 13.6924C40.497 13.6403 40.6165 13.6116 40.7432 13.6116H45.8843C46.4932 13.6116 47.0619 13.6517 47.5807 13.7359C47.729 13.7597 47.873 13.7872 48.0136 13.8181C48.1535 13.8496 48.2898 13.8848 48.422 13.9233C48.4876 13.943 48.5526 13.9634 48.6163 13.9837C48.8715 14.0687 49.1087 14.1692 49.3275 14.285C49.5849 12.6371 49.3254 11.5151 48.4381 10.4992C47.4597 9.38054 45.6941 8.90186 43.4347 8.90186H36.8753C36.4139 8.90186 36.0202 9.23874 35.9489 9.69737L33.2168 27.0852C33.163 27.4291 33.4272 27.7395 33.7727 27.7395H37.8222L39.9327 14.3074Z" fill="#28356A"/>
<path fill-rule="evenodd" clip-rule="evenodd" d="M18.9646 34.105H14.1822C13.8549 34.105 13.5766 34.3437 13.5255 34.6682L11.5912 46.9811C11.5528 47.2242 11.7403 47.443 11.9857 47.443H14.2688C14.5961 47.443 14.8744 47.2045 14.9255 46.8794L15.4472 43.5583C15.4975 43.2332 15.7764 42.9945 16.1031 42.9945H17.617C20.7672 42.9945 22.5853 41.4638 23.0603 38.4308C23.2742 37.1037 23.0693 36.0612 22.4504 35.331C21.7707 34.5292 20.5651 34.105 18.9646 34.105ZM19.5162 38.6021C19.2547 40.3251 17.9435 40.3251 16.6759 40.3251H15.9541L16.4604 37.1073C16.4906 36.9128 16.6582 36.7696 16.8541 36.7696H17.1849C18.0485 36.7696 18.8632 36.7696 19.2841 37.2638C19.5352 37.5586 19.612 37.9968 19.5162 38.6021Z" fill="#28356A"/>
<path fill-rule="evenodd" clip-rule="evenodd" d="M33.3821 38.4536H31.092C30.8969 38.4536 30.7282 38.5968 30.6983 38.7913L30.5968 39.4344L30.4368 39.2014C29.941 38.4788 28.8353 38.2373 27.732 38.2373C25.2011 38.2373 23.0397 40.1619 22.6187 42.8615C22.4 44.2081 22.711 45.4958 23.472 46.3938C24.1699 47.2194 25.1684 47.5636 26.3564 47.5636C28.3956 47.5636 29.5262 46.2471 29.5262 46.2471L29.4241 46.8861C29.3857 47.1303 29.5732 47.3494 29.8172 47.3494H31.88C32.2081 47.3494 32.485 47.1107 32.5367 46.7856L33.7744 38.9156C33.8136 38.6733 33.6268 38.4536 33.3821 38.4536ZM30.1898 42.929C29.9688 44.2425 28.9305 45.1243 27.606 45.1243C26.9411 45.1243 26.4097 44.9102 26.0682 44.5044C25.7298 44.1015 25.6013 43.5278 25.7088 42.8888C25.9153 41.5865 26.971 40.6758 28.2753 40.6758C28.9256 40.6758 29.4543 40.8929 29.8025 41.3019C30.1514 41.7155 30.2899 42.2927 30.1898 42.929Z" fill="#28356A"/>
<path fill-rule="evenodd" clip-rule="evenodd" d="M45.4027 38.6509H43.1012C42.8817 38.6509 42.6754 38.7604 42.551 38.9437L39.3769 43.6379L38.0315 39.1268C37.9469 38.8446 37.6875 38.6509 37.3937 38.6509H35.1324C34.8574 38.6509 34.6666 38.9205 34.754 39.1803L37.2889 46.6493L34.9058 50.0272C34.7183 50.2933 34.9071 50.6591 35.2309 50.6591H37.5295C37.7477 50.6591 37.9518 50.5523 38.0756 50.3727L45.7298 39.2792C45.9132 39.0139 45.725 38.6509 45.4027 38.6509Z" fill="#28356A"/>
<path fill-rule="evenodd" clip-rule="evenodd" d="M53.0748 34.105H48.2918C47.9653 34.105 47.687 34.3437 47.6359 34.6682L45.7016 46.9811C45.6632 47.2242 45.8507 47.443 46.0947 47.443H48.5492C48.777 47.443 48.9721 47.2761 49.0078 47.0485L49.5568 43.5583C49.6071 43.2332 49.8862 42.9945 50.2128 42.9945H51.7261C54.8769 42.9945 56.6944 41.4638 57.1699 38.4308C57.3846 37.1037 57.1784 36.0612 56.5594 35.331C55.8803 34.5292 54.6755 34.105 53.0748 34.105ZM53.6266 38.6021C53.3657 40.3251 52.0545 40.3251 50.7861 40.3251H50.0653L50.5722 37.1073C50.6022 36.9128 50.7686 36.7696 50.9651 36.7696H51.2959C52.1587 36.7696 52.9742 36.7696 53.3951 37.2638C53.6462 37.5586 53.7224 37.9968 53.6266 38.6021Z" fill="#298FC2"/>
<path fill-rule="evenodd" clip-rule="evenodd" d="M67.4894 38.4536H65.2007C65.0042 38.4536 64.8371 38.5968 64.8078 38.7913L64.7063 39.4344L64.5455 39.2014C64.0497 38.4788 62.9448 38.2373 61.8413 38.2373C59.3106 38.2373 57.1499 40.1619 56.729 42.8615C56.5108 44.2081 56.8205 45.4958 57.5813 46.3938C58.2807 47.2194 59.2777 47.5636 60.4659 47.5636C62.5049 47.5636 63.6357 46.2471 63.6357 46.2471L63.5336 46.8861C63.4952 47.1303 63.6825 47.3494 63.9281 47.3494H65.9902C66.3168 47.3494 66.5951 47.1107 66.6462 46.7856L67.8845 38.9156C67.9223 38.6733 67.7349 38.4536 67.4894 38.4536ZM64.2973 42.929C64.0777 44.2425 63.0379 45.1243 61.7134 45.1243C61.0498 45.1243 60.517 44.9102 60.1756 44.5044C59.8373 44.1015 59.71 43.5278 59.8162 42.8888C60.024 41.5865 61.0784 40.6758 62.3827 40.6758C63.033 40.6758 63.5616 40.8929 63.9099 41.3019C64.2601 41.7155 64.3986 42.2927 64.2973 42.929Z" fill="#298FC2"/>
<path fill-rule="evenodd" clip-rule="evenodd" d="M69.9987 34.4434L68.0358 46.9817C67.9974 47.2247 68.1847 47.4436 68.4288 47.4436H70.4022C70.7302 47.4436 71.0084 47.2051 71.0587 46.88L72.9943 34.5677C73.0329 34.3247 72.8455 34.105 72.6014 34.105H70.3918C70.1967 34.1056 70.0288 34.2489 69.9987 34.4434Z" fill="#298FC2"/>
</svg>
