<svg width="84" height="58" viewBox="0 0 84 58" fill="none" xmlns="http://www.w3.org/2000/svg">
<path d="M37.2955 39.7781H31.703L35.201 19.4771H40.7931L37.2955 39.7781Z" fill="#15195A"/>
<path d="M57.5688 19.9737C56.4657 19.5629 54.7161 19.1094 52.5527 19.1094C47.03 19.1094 43.1409 21.8736 43.117 25.8257C43.0712 28.7415 45.9015 30.361 48.0184 31.3332C50.182 32.3267 50.9175 32.9751 50.9175 33.8607C50.8955 35.2207 49.1692 35.8476 47.559 35.8476C45.3263 35.8476 44.1299 35.5244 42.3118 34.7677L41.5754 34.4434L40.7928 39.0005C42.1045 39.5614 44.521 40.0591 47.03 40.0809C52.898 40.0809 56.7183 37.3595 56.7636 33.1479C56.7859 30.8369 55.2913 29.0661 52.0692 27.6191C50.1132 26.6903 48.9153 26.0639 48.9153 25.1135C48.9383 24.2495 49.9285 23.3645 52.1365 23.3645C53.9546 23.3212 55.2904 23.7314 56.3024 24.1419L56.8082 24.3574L57.5688 19.9737Z" fill="#15195A"/>
<path fill-rule="evenodd" clip-rule="evenodd" d="M67.5791 19.4771H71.9049L76.4167 39.7778H71.2386C71.2386 39.7778 70.7318 37.4453 70.5713 36.7325H63.391C63.1833 37.2722 62.2172 39.7778 62.2172 39.7778H56.3492L64.6561 21.1614C65.2317 19.8439 66.2452 19.4771 67.5791 19.4771ZM67.2345 26.9061C67.2345 26.9061 65.4623 31.4199 65.0017 32.5861H69.6501C69.4202 31.5711 68.3611 26.7118 68.3611 26.7118L67.9703 24.9625C67.8057 25.4129 67.5677 26.0322 67.4071 26.4499C67.2983 26.7331 67.2251 26.9236 67.2345 26.9061Z" fill="#15195A"/>
<path fill-rule="evenodd" clip-rule="evenodd" d="M7.47151 19.4771H16.4693C17.6889 19.5198 18.6785 19.887 19.0005 21.1835L20.956 30.5111C20.9562 30.5116 20.9564 30.5122 20.9566 30.5128L21.555 33.3204L27.0319 19.4771H32.9455L24.1551 39.7565H18.2412L13.2566 22.1167C11.5368 21.173 9.57398 20.414 7.37946 19.8872L7.47151 19.4771Z" fill="#15195A"/>
</svg>
