<svg width="24" height="24" viewBox="0 0 24 24" fill="none" xmlns="http://www.w3.org/2000/svg">
<path d="M22.3361 0H1.31389C0.965425 0 0.631232 0.128795 0.38483 0.35805C0.138428 0.587306 0 0.898244 0 1.22246V4.38863C0 5.02798 0.279859 5.65632 0.765998 6.10863L7.88334 12.7307V22.0043C7.8836 22.2126 7.94099 22.4173 8.05007 22.5992C8.15916 22.7811 8.31633 22.934 8.50671 23.0436C8.69708 23.1531 8.91437 23.2157 9.13798 23.2253C9.36159 23.2349 9.58414 23.1912 9.78454 23.0984L15.0401 20.6535C15.4855 20.4456 15.7667 20.0227 15.7667 19.5594V12.7307L22.884 6.10863C23.3702 5.65632 23.65 5.02798 23.65 4.38863V1.22246C23.65 0.898244 23.5116 0.587306 23.2652 0.35805C23.0188 0.128795 22.6846 0 22.3361 0ZM13.5239 11.3603C13.4016 11.4737 13.3047 11.6084 13.2386 11.7567C13.1725 11.905 13.1387 12.064 13.1389 12.2246V18.8039L10.5111 20.0263V12.2246C10.5114 12.064 10.4775 11.905 10.4114 11.7567C10.3453 11.6084 10.2484 11.4737 10.1262 11.3603L2.62778 4.38863V2.44492H21.0236L21.0262 4.38008L13.5239 11.3603Z" fill="black"/>
</svg>
