<svg width="1030" height="28" viewBox="0 0 1030 28" fill="none" xmlns="http://www.w3.org/2000/svg">
<rect width="1030" height="28" fill="#C4C4C4"/>
<path d="M20 9.33333V8H11.3333V9.33333H14.76L11.8467 18.6667H8V20H16.6667V18.6667H13.24L16.1533 9.33333H20Z" fill="white"/>
<path d="M33.8849 19V8.81818H37.9616C38.7107 8.81818 39.3355 8.92921 39.8359 9.15128C40.3364 9.37334 40.7126 9.68158 40.9645 10.076C41.2164 10.4671 41.3423 10.9179 41.3423 11.4283C41.3423 11.826 41.2628 12.1757 41.1037 12.4773C40.9446 12.7756 40.7259 13.0208 40.4474 13.2131C40.1723 13.402 39.8575 13.5362 39.5028 13.6158V13.7152C39.8906 13.7318 40.2536 13.8411 40.5916 14.0433C40.933 14.2455 41.2098 14.5289 41.4219 14.8935C41.634 15.2547 41.7401 15.6856 41.7401 16.1861C41.7401 16.7263 41.6058 17.2086 41.3374 17.6328C41.0722 18.0537 40.6795 18.3868 40.1591 18.6321C39.6387 18.8774 38.9974 19 38.2351 19H33.8849ZM36.0376 17.2401H37.7926C38.3925 17.2401 38.83 17.1257 39.1051 16.897C39.3802 16.665 39.5178 16.3568 39.5178 15.9723C39.5178 15.6906 39.4498 15.442 39.3139 15.2266C39.178 15.0111 38.9841 14.8421 38.7322 14.7195C38.4837 14.5968 38.187 14.5355 37.8423 14.5355H36.0376V17.2401ZM36.0376 13.0788H37.6335C37.9285 13.0788 38.1903 13.0275 38.419 12.9247C38.651 12.8187 38.8333 12.6695 38.9659 12.4773C39.1018 12.285 39.1697 12.0547 39.1697 11.7862C39.1697 11.4183 39.0388 11.1217 38.777 10.8963C38.5185 10.6709 38.1506 10.5582 37.6733 10.5582H36.0376V13.0788Z" fill="white"/>
<path d="M63.9148 8.81818H65.1477V15.5597C65.1477 16.2557 64.9837 16.8771 64.6555 17.424C64.3307 17.9676 63.8717 18.3968 63.2784 18.7116C62.6851 19.0232 61.9891 19.179 61.1903 19.179C60.3916 19.179 59.6955 19.0232 59.1023 18.7116C58.509 18.3968 58.0483 17.9676 57.7202 17.424C57.3954 16.8771 57.233 16.2557 57.233 15.5597V8.81818H58.4659V15.4602C58.4659 15.9574 58.5753 16.3999 58.794 16.7876C59.0128 17.1721 59.3243 17.4754 59.7287 17.6974C60.1364 17.9162 60.6236 18.0256 61.1903 18.0256C61.7571 18.0256 62.2443 17.9162 62.652 17.6974C63.0597 17.4754 63.3712 17.1721 63.5866 16.7876C63.8054 16.3999 63.9148 15.9574 63.9148 15.4602V8.81818Z" fill="white"/>
<rect x="56" y="21" width="11" height="1" fill="white"/>
<path d="M87.9148 8.81818H89.1477V15.5597C89.1477 16.2557 88.9837 16.8771 88.6555 17.424C88.3307 17.9676 87.8717 18.3968 87.2784 18.7116C86.6851 19.0232 85.9891 19.179 85.1903 19.179C84.3916 19.179 83.6955 19.0232 83.1023 18.7116C82.509 18.3968 82.0483 17.9676 81.7202 17.424C81.3954 16.8771 81.233 16.2557 81.233 15.5597V8.81818H82.4659V15.4602C82.4659 15.9574 82.5753 16.3999 82.794 16.7876C83.0128 17.1721 83.3243 17.4754 83.7287 17.6974C84.1364 17.9162 84.6236 18.0256 85.1903 18.0256C85.7571 18.0256 86.2443 17.9162 86.652 17.6974C87.0597 17.4754 87.3712 17.1721 87.5866 16.7876C87.8054 16.3999 87.9148 15.9574 87.9148 15.4602V8.81818Z" fill="white"/>
<rect x="80" y="14" width="11" height="1" fill="white"/>
<path d="M110.969 16.3981C110.946 16.3748 110.914 16.3618 110.881 16.3618C110.848 16.3618 110.816 16.3748 110.793 16.3981L108.977 18.2138C108.137 19.0544 106.718 19.1435 105.79 18.2138C104.86 17.284 104.949 15.8668 105.79 15.0261L107.605 13.2104C107.654 13.162 107.654 13.0823 107.605 13.0338L106.983 12.4119C106.96 12.3887 106.928 12.3756 106.895 12.3756C106.862 12.3756 106.83 12.3887 106.807 12.4119L104.991 14.2276C103.67 15.5496 103.67 17.6888 104.991 19.0091C106.313 20.3295 108.452 20.3311 109.772 19.0091L111.588 17.1934C111.636 17.145 111.636 17.0653 111.588 17.0168L110.969 16.3981ZM115.01 8.99145C113.688 7.66952 111.549 7.66952 110.229 8.99145L108.412 10.8072C108.388 10.8307 108.375 10.8624 108.375 10.8955C108.375 10.9285 108.388 10.9602 108.412 10.9837L109.032 11.6041C109.08 11.6525 109.16 11.6525 109.208 11.6041L111.024 9.78837C111.865 8.9477 113.283 8.85864 114.211 9.78837C115.141 10.7181 115.052 12.1354 114.211 12.976L112.396 14.7917C112.373 14.8152 112.36 14.847 112.36 14.88C112.36 14.9131 112.373 14.9448 112.396 14.9683L113.018 15.5902C113.066 15.6387 113.146 15.6387 113.194 15.5902L115.01 13.7745C116.33 12.4526 116.33 10.3134 115.01 8.99145ZM111.533 11.8182C111.51 11.7949 111.478 11.7818 111.445 11.7818C111.412 11.7818 111.38 11.7949 111.357 11.8182L107.818 15.3558C107.795 15.3793 107.782 15.411 107.782 15.4441C107.782 15.4772 107.795 15.5089 107.818 15.5324L108.437 16.1512C108.485 16.1996 108.565 16.1996 108.613 16.1512L112.151 12.6135C112.199 12.5651 112.199 12.4854 112.151 12.4369L111.533 11.8182Z" fill="white"/>
<rect width="24" height="24" transform="translate(122 2)" fill="white"/>
<rect x="128.5" y="8.5" width="11" height="11" rx="0.5" fill="black" stroke="black"/>
<path d="M160 13H151" stroke="white" stroke-linecap="square" stroke-linejoin="round"/>
<path d="M163 10H151" stroke="white" stroke-linecap="square" stroke-linejoin="round"/>
<path d="M163 16H151" stroke="white" stroke-linecap="square" stroke-linejoin="round"/>
<path d="M160 19H151" stroke="white" stroke-linecap="square" stroke-linejoin="round"/>
<path d="M178 13H187" stroke="white" stroke-linecap="square" stroke-linejoin="round"/>
<path d="M176 10H189" stroke="white" stroke-linecap="square" stroke-linejoin="round"/>
<path d="M176 16H189" stroke="white" stroke-linecap="square" stroke-linejoin="round"/>
<path d="M178 19H187" stroke="white" stroke-linecap="square" stroke-linejoin="round"/>
<path d="M204 13H213" stroke="white" stroke-linecap="square" stroke-linejoin="round"/>
<path d="M201 10H213" stroke="white" stroke-linecap="square" stroke-linejoin="round"/>
<path d="M201 16H213" stroke="white" stroke-linecap="square" stroke-linejoin="round"/>
<path d="M204 19H213" stroke="white" stroke-linecap="square" stroke-linejoin="round"/>
<path d="M228 13H237" stroke="white" stroke-linecap="square" stroke-linejoin="round"/>
<path d="M225 13H226" stroke="white" stroke-linecap="square" stroke-linejoin="round"/>
<path d="M228 10H237" stroke="white" stroke-linecap="square" stroke-linejoin="round"/>
<path d="M225 10H226" stroke="white" stroke-linecap="square" stroke-linejoin="round"/>
<path d="M228 16H237" stroke="white" stroke-linecap="square" stroke-linejoin="round"/>
<path d="M225 16H226" stroke="white" stroke-linecap="square" stroke-linejoin="round"/>
<path d="M228 19H237" stroke="white" stroke-linecap="square" stroke-linejoin="round"/>
<path d="M225 19H226" stroke="white" stroke-linecap="square" stroke-linejoin="round"/>
</svg>
