<svg width="24" height="26" viewBox="0 0 24 26" fill="none" xmlns="http://www.w3.org/2000/svg">
<path d="M2.66667 26H21.3333C22.0406 26 22.7189 25.7261 23.219 25.2385C23.7191 24.7509 24 24.0895 24 23.3999V9.09961C24 8.75482 23.8595 8.42415 23.6095 8.18035C23.3594 7.93655 23.0203 7.79958 22.6667 7.79958H18.6667V6.78946C18.6667 3.39768 16.1293 0.360809 12.6667 0.0319014C11.7398 -0.0579149 10.804 0.0424327 9.91932 0.326488C9.03465 0.610544 8.22077 1.07202 7.53002 1.68122C6.83928 2.29042 6.28698 3.03385 5.90865 3.8637C5.53033 4.69354 5.33435 5.59141 5.33333 6.49955V7.79958H1.33333C0.979711 7.79958 0.640573 7.93655 0.390524 8.18035C0.140476 8.42415 0 8.75482 0 9.09961V23.3999C0 24.0895 0.280951 24.7509 0.781049 25.2385C1.28115 25.7261 1.95942 26 2.66667 26ZM18.6667 10.3996V12.9997H16V10.3996H18.6667ZM8 6.49955C8 4.3493 9.79467 2.59946 12 2.59946C14.2053 2.59946 16 4.3493 16 6.49955V7.79958H8V6.49955ZM5.33333 10.3996H8V12.9997H5.33333V10.3996Z" fill="#66B032"/>
</svg>
