<svg width="24" height="22" viewBox="0 0 24 22" fill="none" xmlns="http://www.w3.org/2000/svg">
<path d="M15.75 14C16.716 14 17.5 14.784 17.5 15.75V17.752L17.492 17.86C17.182 19.987 15.272 21.009 12.067 21.009C8.874 21.009 6.933 19.999 6.514 17.897L6.5 17.75V15.75C6.5 14.784 7.284 14 8.25 14H15.75ZM16.244 8H22.25C23.216 8 24 8.784 24 9.75V11.752L23.992 11.86C23.682 13.987 21.772 15.009 18.567 15.009L18.399 15.007C18.2448 14.4589 17.9245 13.9722 17.4821 13.6138C17.0398 13.2554 16.4971 13.0431 15.929 13.006L15.75 13H14.828C15.3505 12.5786 15.772 12.0455 16.0613 11.4398C16.3507 10.8341 16.5006 10.1713 16.5 9.5C16.5 8.974 16.41 8.47 16.244 8ZM1.75 8H7.756C7.59 8.47 7.5 8.974 7.5 9.5C7.5 10.83 8.078 12.027 8.996 12.85L9.172 13H8.25C6.988 13 5.924 13.85 5.6 15.01L5.567 15.009C2.374 15.009 0.433 13.999 0.0139999 11.897L0 11.75V9.75C0 8.784 0.784 8 1.75 8ZM12 6C12.9283 6 13.8185 6.36875 14.4749 7.02513C15.1313 7.6815 15.5 8.57174 15.5 9.5C15.5 10.4283 15.1313 11.3185 14.4749 11.9749C13.8185 12.6313 12.9283 13 12 13C11.0717 13 10.1815 12.6313 9.52513 11.9749C8.86875 11.3185 8.5 10.4283 8.5 9.5C8.5 8.57174 8.86875 7.6815 9.52513 7.02513C10.1815 6.36875 11.0717 6 12 6ZM18.5 0C19.4283 0 20.3185 0.368749 20.9749 1.02513C21.6313 1.6815 22 2.57174 22 3.5C22 4.42826 21.6313 5.3185 20.9749 5.97487C20.3185 6.63125 19.4283 7 18.5 7C17.5717 7 16.6815 6.63125 16.0251 5.97487C15.3687 5.3185 15 4.42826 15 3.5C15 2.57174 15.3687 1.6815 16.0251 1.02513C16.6815 0.368749 17.5717 0 18.5 0ZM5.5 0C6.42826 0 7.3185 0.368749 7.97487 1.02513C8.63125 1.6815 9 2.57174 9 3.5C9 4.42826 8.63125 5.3185 7.97487 5.97487C7.3185 6.63125 6.42826 7 5.5 7C4.57174 7 3.6815 6.63125 3.02513 5.97487C2.36875 5.3185 2 4.42826 2 3.5C2 2.57174 2.36875 1.6815 3.02513 1.02513C3.6815 0.368749 4.57174 0 5.5 0Z" fill="#66B032"/>
</svg>
