<svg width="24" height="20" viewBox="0 0 24 20" fill="none" xmlns="http://www.w3.org/2000/svg">
<path d="M21.6 16.25C21.6 16.5815 21.4736 16.8995 21.2485 17.1339C21.0235 17.3683 20.7183 17.5 20.4 17.5C20.0817 17.5 19.7765 17.3683 19.5515 17.1339C19.3264 16.8995 19.2 16.5815 19.2 16.25V1.25C19.2 0.918479 19.0736 0.600537 18.8485 0.366117C18.6235 0.131696 18.3183 0 18 0H1.2C0.88174 0 0.576515 0.131696 0.351472 0.366117C0.126428 0.600537 0 0.918479 0 1.25V17.5C0 18.163 0.252856 18.7989 0.702944 19.2678C1.15303 19.7366 1.76348 20 2.4 20H20.4C22.3848 20 24 18.3175 24 16.25V3.75H21.6V16.25ZM12 3.75H15.6V6.25H12V3.75ZM12 8.75H15.6V11.25H12V8.75ZM3.6 3.75H9.6V11.25H3.6V3.75ZM3.6 16.25V13.75H15.6V16.25H3.6Z" fill="#4F693D"/>
<path d="M21.6 16.25C21.6 16.5815 21.4736 16.8995 21.2485 17.1339C21.0235 17.3683 20.7183 17.5 20.4 17.5C20.0817 17.5 19.7765 17.3683 19.5515 17.1339C19.3264 16.8995 19.2 16.5815 19.2 16.25V1.25C19.2 0.918479 19.0736 0.600537 18.8485 0.366117C18.6235 0.131696 18.3183 0 18 0H1.2C0.88174 0 0.576515 0.131696 0.351472 0.366117C0.126428 0.600537 0 0.918479 0 1.25V17.5C0 18.163 0.252856 18.7989 0.702944 19.2678C1.15303 19.7366 1.76348 20 2.4 20H20.4C22.3848 20 24 18.3175 24 16.25V3.75H21.6V16.25ZM12 3.75H15.6V6.25H12V3.75ZM12 8.75H15.6V11.25H12V8.75ZM3.6 3.75H9.6V11.25H3.6V3.75ZM3.6 16.25V13.75H15.6V16.25H3.6Z" fill="black" fill-opacity="0.2"/>
</svg>
