<svg width="24" height="24" viewBox="0 0 24 24" fill="none" xmlns="http://www.w3.org/2000/svg">
<path d="M23.2872 4.90344L12.4872 0.103504C12.3336 0.0352612 12.1675 0 11.9994 0C11.8314 0 11.6652 0.0352612 11.5116 0.103504L0.7116 4.90344C0.6876 4.91424 0.6708 4.93224 0.6468 4.94544C0.6132 4.96224 0.5772 4.97304 0.546 4.99344C0.5196 5.01144 0.4992 5.03424 0.474 5.05344C0.386284 5.11863 0.309347 5.19718 0.246 5.28624C0.222 5.31984 0.1968 5.34984 0.1752 5.38344C0.139484 5.44686 0.108984 5.51307 0.0839999 5.58143C0.0731999 5.61383 0.0564 5.64383 0.0468 5.67623C0.0166626 5.78163 0.000919856 5.89061 0 6.00023V18.0001C0 18.4753 0.2784 18.9037 0.7128 19.0969L11.5128 23.8968C11.6688 23.9664 11.8344 24 12 24C12.1671 23.9957 12.3314 23.9565 12.4824 23.8848L12.4872 23.8968L23.2872 19.0969C23.4995 19.0027 23.6798 18.849 23.8064 18.6543C23.9329 18.4596 24.0002 18.2323 24 18.0001V6.00023C24.0002 5.76802 23.9329 5.54076 23.8064 5.34605C23.6798 5.15135 23.4995 4.99758 23.2872 4.90344ZM12 2.51427L19.8456 6.00023L12 9.48618L10.4304 8.78899L4.1556 6.00023L12 2.51427ZM13.2 20.9532V11.5802L21.6 7.847V17.2213L13.2 20.9532Z" fill="#4F693D"/>
<path d="M23.2872 4.90344L12.4872 0.103504C12.3336 0.0352612 12.1675 0 11.9994 0C11.8314 0 11.6652 0.0352612 11.5116 0.103504L0.7116 4.90344C0.6876 4.91424 0.6708 4.93224 0.6468 4.94544C0.6132 4.96224 0.5772 4.97304 0.546 4.99344C0.5196 5.01144 0.4992 5.03424 0.474 5.05344C0.386284 5.11863 0.309347 5.19718 0.246 5.28624C0.222 5.31984 0.1968 5.34984 0.1752 5.38344C0.139484 5.44686 0.108984 5.51307 0.0839999 5.58143C0.0731999 5.61383 0.0564 5.64383 0.0468 5.67623C0.0166626 5.78163 0.000919856 5.89061 0 6.00023V18.0001C0 18.4753 0.2784 18.9037 0.7128 19.0969L11.5128 23.8968C11.6688 23.9664 11.8344 24 12 24C12.1671 23.9957 12.3314 23.9565 12.4824 23.8848L12.4872 23.8968L23.2872 19.0969C23.4995 19.0027 23.6798 18.849 23.8064 18.6543C23.9329 18.4596 24.0002 18.2323 24 18.0001V6.00023C24.0002 5.76802 23.9329 5.54076 23.8064 5.34605C23.6798 5.15135 23.4995 4.99758 23.2872 4.90344ZM12 2.51427L19.8456 6.00023L12 9.48618L10.4304 8.78899L4.1556 6.00023L12 2.51427ZM13.2 20.9532V11.5802L21.6 7.847V17.2213L13.2 20.9532Z" fill="black" fill-opacity="0.2"/>
</svg>
