<svg width="24" height="24" viewBox="0 0 24 24" fill="none" xmlns="http://www.w3.org/2000/svg">
<path d="M21.3333 0H2.66667C1.196 0 0 1.196 0 2.66667V8H24V2.66667C24 1.196 22.804 0 21.3333 0ZM0 21.3333C0 22.804 1.196 24 2.66667 24H13.3333V10.6667H0V21.3333ZM16 24H21.3333C22.804 24 24 22.804 24 21.3333V10.6667H16V24Z" fill="#4F693D"/>
<path d="M21.3333 0H2.66667C1.196 0 0 1.196 0 2.66667V8H24V2.66667C24 1.196 22.804 0 21.3333 0ZM0 21.3333C0 22.804 1.196 24 2.66667 24H13.3333V10.6667H0V21.3333ZM16 24H21.3333C22.804 24 24 22.804 24 21.3333V10.6667H16V24Z" fill="black" fill-opacity="0.2"/>
</svg>
