<svg width="25" height="22" viewBox="0 0 25 22" fill="none" xmlns="http://www.w3.org/2000/svg">
<path d="M5.75577 2.08015L4.23895 0.568485C0.694336 4.05276 0.694336 6.57787 0.694336 9.84072H1.77009L2.84585 9.77365C2.84585 6.65665 2.84585 4.93953 5.75577 2.08015ZM20.8153 0.568485L19.3006 2.08015C22.2094 4.93953 22.2094 6.65665 22.2094 9.84072L24.361 9.77365C24.361 6.57787 24.361 4.05276 20.8153 0.568485ZM12.5276 21.5508C13.1939 21.5516 13.8438 21.347 14.3871 20.9654C14.9304 20.5839 15.34 20.0443 15.5591 19.4217H9.49617C9.71526 20.0443 10.1249 20.5839 10.6682 20.9654C11.2115 21.347 11.8614 21.5516 12.5276 21.5508ZM20.0579 13.6582V8.77617C20.0579 5.35151 17.7074 2.46658 14.5232 1.59897C14.208 0.813332 13.4377 0.259766 12.5276 0.259766C11.6176 0.259766 10.8473 0.813332 10.5321 1.59897C7.34681 2.46658 4.99736 5.35151 4.99736 8.77617V13.6582L3.16104 15.4754C3.06095 15.5741 2.98158 15.6914 2.92748 15.8206C2.87339 15.9497 2.84564 16.0882 2.84585 16.228V17.2926C2.84585 17.5749 2.95919 17.8457 3.16093 18.0453C3.36267 18.245 3.63629 18.3571 3.9216 18.3571H21.1337C21.419 18.3571 21.6926 18.245 21.8944 18.0453C22.0961 17.8457 22.2094 17.5749 22.2094 17.2926V16.228C22.2097 16.0882 22.1819 15.9497 22.1278 15.8206C22.0737 15.6914 21.9943 15.5741 21.8943 15.4754L20.0579 13.6582Z" fill="black"/>
</svg>
