<svg width="58" height="58" viewBox="0 0 58 58" fill="none" xmlns="http://www.w3.org/2000/svg">
<g filter="url(#filter0_d_1108_3395)">
<circle cx="29" cy="29" r="25" fill="#66B032"/>
<path d="M34.0858 42.1208C34.0858 40.3803 35.316 39.0747 36.6794 39.0747C38.0427 39.0747 39.2729 40.3803 39.2729 42.1208C39.2729 43.8613 38.0427 45.1669 36.6794 45.1669C35.316 45.1669 34.0858 43.8613 34.0858 42.1208ZM34.3232 42.1208C34.3232 43.5009 35.3204 44.7485 36.6794 44.7485C38.0383 44.7485 39.0355 43.5009 39.0355 42.1208C39.0355 40.7408 38.0383 39.4932 36.6794 39.4932C35.3204 39.4932 34.3232 40.7408 34.3232 42.1208Z" fill="black" stroke="white"/>
<path d="M21.7117 42.1208C21.7117 40.3803 22.9419 39.0747 24.3053 39.0747C25.6686 39.0747 26.8988 40.3803 26.8988 42.1208C26.8988 43.8613 25.6686 45.1669 24.3053 45.1669C22.9419 45.1669 21.7117 43.8613 21.7117 42.1208ZM21.9492 42.1208C21.9492 43.5009 22.9463 44.7485 24.3053 44.7485C25.6642 44.7485 26.6614 43.5009 26.6614 42.1208C26.6614 40.7408 25.6642 39.4932 24.3053 39.4932C22.9463 39.4932 21.9492 40.7408 21.9492 42.1208Z" fill="black" stroke="white"/>
<path d="M18.0897 17.384L18.1619 17.798H18.5823H43.8254C44.2412 17.798 44.6475 18.0355 44.9124 18.4772L45.3412 18.22L44.9124 18.4772C45.1778 18.9197 45.2509 19.5068 45.0575 20.0335L45.055 20.0402L45.0527 20.047L40.1341 34.7277C39.7252 35.9464 38.7459 36.6917 37.7002 36.6917H23.2225C22.0312 36.6917 20.9292 35.7143 20.6524 34.2325L17.9927 18.2797L17.9825 18.2187L17.9578 18.162L17.9474 18.138L17.9396 18.1194C17.9389 18.1177 17.9382 18.1161 17.9376 18.1146V18.1064L17.9304 18.0643L17.467 15.373C17.2802 14.1849 16.3657 13.2519 15.1794 13.2519H12.952C12.9451 13.2519 12.9222 13.2496 12.8919 13.2149C12.8609 13.1794 12.8333 13.1196 12.8333 13.0427C12.8333 12.9659 12.8609 12.906 12.8919 12.8705C12.9222 12.8358 12.9451 12.8335 12.952 12.8335H15.1794C16.3796 12.8335 17.4727 13.785 17.7179 15.2528L17.7179 15.2528L17.7185 15.2563L18.0897 17.384ZM20.9352 34.0832L20.9351 34.0832L20.9368 34.0921C21.1551 35.26 22.0889 36.2378 23.2535 36.2378H37.7312C38.755 36.2378 39.6036 35.5326 39.9382 34.512C39.9384 34.5114 39.9386 34.5109 39.9388 34.5103L44.8503 19.8507C45.0064 19.4706 44.936 19.0642 44.7526 18.7488L44.7422 18.731L44.7304 18.714C44.5404 18.4418 44.2479 18.2165 43.8254 18.2165H18.8607H18.2722L18.3672 18.7972L18.8313 21.6341L18.8998 22.0534H19.3247H34.1736C34.1805 22.0534 34.2035 22.0557 34.2338 22.0904C34.2647 22.1259 34.2923 22.1857 34.2923 22.2626C34.2923 22.3395 34.2647 22.3993 34.2338 22.4348C34.2035 22.4695 34.1805 22.4718 34.1736 22.4718H19.5722H18.981L19.0791 23.0548L20.9352 34.0832Z" fill="black" stroke="white"/>
<path d="M36.9578 22.0532H37.8858C37.8927 22.0532 37.9157 22.0555 37.946 22.0902C37.977 22.1257 38.0046 22.1856 38.0046 22.2624C38.0046 22.3393 37.977 22.3992 37.946 22.4346C37.9157 22.4694 37.8927 22.4717 37.8858 22.4717H36.9578C36.9509 22.4717 36.9279 22.4694 36.8976 22.4346C36.8667 22.3992 36.8391 22.3393 36.8391 22.2624C36.8391 22.1856 36.8667 22.1257 36.8976 22.0902C36.9279 22.0555 36.9509 22.0532 36.9578 22.0532Z" fill="black" stroke="white"/>
</g>
<defs>
<filter id="filter0_d_1108_3395" x="0" y="0" width="58" height="58" filterUnits="userSpaceOnUse" color-interpolation-filters="sRGB">
<feFlood flood-opacity="0" result="BackgroundImageFix"/>
<feColorMatrix in="SourceAlpha" type="matrix" values="0 0 0 0 0 0 0 0 0 0 0 0 0 0 0 0 0 0 127 0" result="hardAlpha"/>
<feOffset/>
<feGaussianBlur stdDeviation="2"/>
<feComposite in2="hardAlpha" operator="out"/>
<feColorMatrix type="matrix" values="0 0 0 0 0 0 0 0 0 0 0 0 0 0 0 0 0 0 0.25 0"/>
<feBlend mode="normal" in2="BackgroundImageFix" result="effect1_dropShadow_1108_3395"/>
<feBlend mode="normal" in="SourceGraphic" in2="effect1_dropShadow_1108_3395" result="shape"/>
</filter>
</defs>
</svg>
