<svg width="50" height="50" viewBox="0 0 50 50" fill="none" xmlns="http://www.w3.org/2000/svg">
<circle cx="25" cy="25" r="25" fill="#66B032"/>
<g clip-path="url(#clip0_1168_5915)">
<path d="M29.3671 13.1269C28.664 13.4785 28.664 14.4745 29.3671 14.8261L29.621 14.9531H32.1357H34.6552L30.6904 18.9179C28.5126 21.1005 26.6962 22.956 26.6523 23.0439C26.4423 23.4638 26.623 24.0644 27.0331 24.3037C27.2822 24.4501 27.707 24.4697 27.956 24.3476C28.0439 24.3037 29.8993 22.4872 32.082 20.3095L36.0468 16.3447V18.8642V21.3788L36.1689 21.623C36.5302 22.3408 37.5263 22.3456 37.873 21.6279L37.9999 21.3691L37.9902 17.5117L37.9755 13.6591L37.8583 13.4736C37.7948 13.371 37.6532 13.2294 37.5458 13.1562L37.3456 13.0244L33.4882 13.0097L29.6259 12.9999L29.3671 13.1269Z" fill="white"/>
<path d="M23.3158 27.0713C23.3159 27.0711 23.3142 27.0725 23.3103 27.0757C23.3138 27.073 23.3157 27.0714 23.3158 27.0713ZM23.2872 27.0961C23.2741 27.1079 23.257 27.1235 23.2356 27.1434C23.1752 27.1995 23.0893 27.2811 22.9798 27.3865C22.7613 27.5968 22.455 27.8956 22.0828 28.2614C21.3387 28.9927 20.335 29.9878 19.2516 31.0688L15.3065 35.009L14.4531 35.8613V34.6553V32.1357V29.7391L14.379 29.5908C14.2131 29.259 13.7464 29.245 13.5666 29.6059L13.5003 29.744L13.5098 33.4864L13.5098 33.487L13.5238 37.195L13.571 37.2666C13.5854 37.2871 13.6155 37.3235 13.6556 37.3632C13.6752 37.3825 13.6938 37.3994 13.71 37.4128C13.7179 37.4194 13.7245 37.4245 13.7295 37.4282C13.7341 37.4315 13.7365 37.4331 13.7368 37.4333L13.7368 37.4332L13.7406 37.4357L13.8047 37.4761L17.513 37.4902L17.5136 37.4902L21.2537 37.4997L21.4077 37.4242L21.408 37.424C21.7449 37.2591 21.746 36.7883 21.4104 36.6217L21.4092 36.621L21.2609 36.5469H18.8643H16.3447H15.1387L15.991 35.6935L19.9558 31.7238L19.956 31.7236C21.044 30.6356 22.0413 29.6286 22.7716 28.883C23.137 28.5101 23.4345 28.2035 23.6429 27.9854C23.7473 27.8761 23.8276 27.7908 23.8823 27.7312C23.8957 27.7165 23.907 27.7041 23.9163 27.6937C23.941 27.619 23.9452 27.516 23.9111 27.4029C23.8707 27.269 23.7921 27.1732 23.7149 27.1282L23.713 27.1271C23.6646 27.0986 23.5767 27.0715 23.4704 27.0692C23.3843 27.0674 23.3218 27.0825 23.2872 27.0961Z" fill="white" stroke="white"/>
</g>
<defs>
<clipPath id="clip0_1168_5915">
<rect width="25" height="25" fill="white" transform="translate(13 13)"/>
</clipPath>
</defs>
</svg>
