<svg width="40" height="40" viewBox="0 0 40 40" fill="none" xmlns="http://www.w3.org/2000/svg">
<path fill-rule="evenodd" clip-rule="evenodd" d="M39.2 20.4547C39.2 19.0365 39.0727 17.6729 38.8364 16.3638H20V24.1001H30.7636C30.3 26.6001 28.8909 28.7183 26.7727 30.1365V35.1547H33.2364C37.0182 31.6729 39.2 26.5456 39.2 20.4547Z" fill="#4285F4"/>
<path fill-rule="evenodd" clip-rule="evenodd" d="M20.0007 39.9993C25.4007 39.9993 29.9279 38.2084 33.237 35.1539L26.7734 30.1357C24.9825 31.3357 22.6916 32.0448 20.0007 32.0448C14.7916 32.0448 10.3825 28.5266 8.80975 23.7993H2.12793V28.9811C5.41884 35.5175 12.1825 39.9993 20.0007 39.9993Z" fill="#34A853"/>
<path fill-rule="evenodd" clip-rule="evenodd" d="M8.80909 23.8009C8.40909 22.6009 8.18182 21.319 8.18182 20.0009C8.18182 18.6827 8.40909 17.4009 8.80909 16.2009V11.019H2.12727C0.772727 13.719 0 16.7736 0 20.0009C0 23.2281 0.772727 26.2827 2.12727 28.9827L8.80909 23.8009Z" fill="#FBBC05"/>
<path fill-rule="evenodd" clip-rule="evenodd" d="M20.0007 7.95454C22.937 7.95454 25.5734 8.96364 27.6461 10.9455L33.3825 5.20909C29.9188 1.98182 25.3916 0 20.0007 0C12.1825 0 5.41884 4.48182 2.12793 11.0182L8.80975 16.2C10.3825 11.4727 14.7916 7.95454 20.0007 7.95454Z" fill="#EA4335"/>
</svg>
