<svg width="24" height="29" viewBox="0 0 24 29" fill="none" xmlns="http://www.w3.org/2000/svg">
<path d="M21 9.66667H19.5V6.90476C19.5 3.09333 16.14 0 12 0C7.86 0 4.5 3.09333 4.5 6.90476V9.66667H3C1.35 9.66667 0 10.9095 0 12.4286V26.2381C0 27.7571 1.35 29 3 29H21C22.65 29 24 27.7571 24 26.2381V12.4286C24 10.9095 22.65 9.66667 21 9.66667ZM12 22.0952C10.35 22.0952 9 20.8524 9 19.3333C9 17.8143 10.35 16.5714 12 16.5714C13.65 16.5714 15 17.8143 15 19.3333C15 20.8524 13.65 22.0952 12 22.0952ZM16.65 9.66667H7.35V6.90476C7.35 4.54333 9.435 2.62381 12 2.62381C14.565 2.62381 16.65 4.54333 16.65 6.90476V9.66667Z" fill="#66B032"/>
</svg>
