<svg width="31" height="32" viewBox="0 0 31 32" fill="none" xmlns="http://www.w3.org/2000/svg">
<path d="M10.4365 14.1213H7.1032V17.2173H10.4365V14.1213ZM17.1032 14.1213H13.7699V17.2173H17.1032V14.1213ZM23.7699 14.1213H20.4365V17.2173H23.7699V14.1213ZM27.1032 3.28542H25.4366V0.189453H22.1032V3.28542H8.76987V0.189453H5.43653V3.28542H3.76986C1.91986 3.28542 0.45319 4.67861 0.45319 6.3814L0.436523 28.0532C0.436523 29.756 1.91986 31.1492 3.76986 31.1492H27.1032C28.9366 31.1492 30.4366 29.756 30.4366 28.0532V6.3814C30.4366 4.67861 28.9366 3.28542 27.1032 3.28542ZM27.1032 28.0532H3.76986V11.0254H27.1032V28.0532Z" fill="black"/>
</svg>
