<svg width="24" height="24" viewBox="0 0 24 24" fill="none" xmlns="http://www.w3.org/2000/svg">
<path d="M20.4 6H19.2V0H4.8V6H3.6C2.64522 6 1.72955 6.37928 1.05442 7.05442C0.379285 7.72955 0 8.64522 0 9.6V18C0 18.6365 0.252856 19.247 0.702944 19.6971C1.15303 20.1471 1.76348 20.4 2.4 20.4H4.8V24H19.2V20.4H21.6C22.2365 20.4 22.847 20.1471 23.2971 19.6971C23.7471 19.247 24 18.6365 24 18V9.6C24 8.64522 23.6207 7.72955 22.9456 7.05442C22.2705 6.37928 21.3548 6 20.4 6ZM7.2 2.4H16.8V6H7.2V2.4ZM7.2 21.6V16.8H16.8V21.6H7.2ZM20.4 12H15.6V9.6H20.4V12Z" fill="white"/>
</svg>
