<svg width="24" height="24" viewBox="0 0 24 24" fill="none" xmlns="http://www.w3.org/2000/svg">
<path d="M23.9916 7.13248C23.9897 7.0458 23.978 6.95961 23.9568 6.87555C23.9484 6.84553 23.9316 6.81672 23.9208 6.7867C23.8956 6.71827 23.8728 6.65103 23.8368 6.5886C23.8176 6.55618 23.7912 6.52977 23.7684 6.49855C23.73 6.44453 23.6928 6.3893 23.646 6.34247C23.6184 6.31606 23.5824 6.29445 23.5524 6.26924C23.5056 6.23082 23.4624 6.1888 23.4084 6.15638C23.4036 6.15278 23.3976 6.15278 23.3916 6.14918L23.382 6.14197L12.6072 0.150917C12.4291 0.0521385 12.2289 0.000210634 12.0254 6.39448e-07C11.8218 -0.000209355 11.6215 0.0513055 11.4432 0.149716L0.618 6.14077C0.6144 6.14437 0.6108 6.14918 0.6048 6.15278L0.5928 6.15758C0.5508 6.18159 0.5196 6.21641 0.48 6.24522C0.4368 6.27764 0.3912 6.30646 0.3528 6.34368C0.3168 6.38089 0.2892 6.42412 0.258 6.46614C0.2256 6.50816 0.1896 6.54538 0.1632 6.591C0.132 6.64263 0.1152 6.70146 0.0923999 6.75789C0.0755999 6.79751 0.054 6.83473 0.0432 6.87795C0.0224754 6.96047 0.0108063 7.04502 0.00839996 7.13008C0.00719996 7.15049 0 7.1685 0 7.19011V16.7974C0 17.2332 0.2364 17.6354 0.618 17.8467L11.3916 23.8342L11.3928 23.8354L11.3952 23.8366L11.4192 23.8498C11.4708 23.8786 11.5272 23.8942 11.5812 23.9146C11.6196 23.9302 11.6568 23.9507 11.6976 23.9615C11.8967 24.0128 12.1057 24.0128 12.3048 23.9615C12.3444 23.9507 12.3816 23.9302 12.4212 23.9146C12.4752 23.8942 12.5316 23.8798 12.5832 23.8498L12.6072 23.8366L12.6096 23.8354L12.6108 23.8342L23.3844 17.8467C23.7636 17.6354 24 17.2332 24 16.7974V7.19011C24 7.1697 23.9928 7.15289 23.9916 7.13248ZM11.9664 11.8413L3.6696 7.19851L6.984 5.36398L15.1848 10.0524L11.9664 11.8413ZM12.024 2.57375L20.3292 7.19251L17.6364 8.68967L9.4404 4.00368L12.024 2.57375ZM13.2 20.7606L13.2024 13.9423L16.8 11.9277V15.5968L19.2 14.3962V10.5842L21.6 9.24075V16.0902L13.2 20.7606Z" fill="#66B032"/>
</svg>
