<svg width="24" height="20" viewBox="0 0 24 20" fill="none" xmlns="http://www.w3.org/2000/svg">
<path d="M20.58 4.60628C20.3706 4.25819 20.0699 3.96875 19.7078 3.76672C19.3457 3.5647 18.9348 3.45713 18.516 3.45471H15.6V1.15157C15.6 0.846154 15.4736 0.553248 15.2485 0.337287C15.0235 0.121326 14.7183 0 14.4 0H2.4C1.76348 0 1.15303 0.242651 0.702944 0.674574C0.252856 1.1065 0 1.69231 0 2.30314V13.8188C0.00043169 14.2227 0.111531 14.6194 0.322154 14.9691C0.532776 15.3187 0.835515 15.6091 1.2 15.811C1.15703 16.88 1.55833 17.9215 2.3156 18.7066C3.07287 19.4916 4.12409 19.9558 5.238 19.997C6.35191 20.0382 7.43726 19.6531 8.2553 18.9264C9.07333 18.1997 9.55704 17.1909 9.6 16.122H13.32C13.4527 17.0855 13.9458 17.9699 14.7074 18.6105C15.469 19.2512 16.4472 19.6044 17.46 19.6044C18.4728 19.6044 19.451 19.2512 20.2126 18.6105C20.9743 17.9699 21.4673 17.0855 21.6 16.122C22.2365 16.122 22.847 15.8793 23.2971 15.4474C23.7471 15.0155 24 14.4297 24 13.8188V10.3641C23.9981 10.154 23.9403 9.9479 23.832 9.76531L20.58 4.60628ZM15.6 5.75785H18.516L20.676 9.21255H15.6V5.75785ZM5.4 17.2735C5.04399 17.2735 4.69598 17.1722 4.39997 16.9824C4.10397 16.7926 3.87325 16.5228 3.73702 16.2072C3.60078 15.8916 3.56513 15.5443 3.63459 15.2092C3.70404 14.8741 3.87547 14.5663 4.12721 14.3248C4.37894 14.0832 4.69967 13.9187 5.04884 13.852C5.398 13.7854 5.75992 13.8196 6.08883 13.9503C6.41774 14.0811 6.69886 14.3025 6.89665 14.5865C7.09443 14.8706 7.2 15.2045 7.2 15.5462C7.2 16.0043 7.01036 16.4437 6.67279 16.7676C6.33523 17.0915 5.87739 17.2735 5.4 17.2735ZM17.4 17.2735C17.044 17.2735 16.696 17.1722 16.4 16.9824C16.104 16.7926 15.8733 16.5228 15.737 16.2072C15.6008 15.8916 15.5651 15.5443 15.6346 15.2092C15.704 14.8741 15.8755 14.5663 16.1272 14.3248C16.3789 14.0832 16.6997 13.9187 17.0488 13.852C17.398 13.7854 17.7599 13.8196 18.0888 13.9503C18.4177 14.0811 18.6989 14.3025 18.8966 14.5865C19.0944 14.8706 19.2 15.2045 19.2 15.5462C19.2 16.0043 19.0104 16.4437 18.6728 16.7676C18.3352 17.0915 17.8774 17.2735 17.4 17.2735Z" fill="#66B032"/>
</svg>
